{
    "asset" : {
        "generator" : "Khronos glTF Blender I/O v3.2.40",
        "version" : "2.0"
    },
    "extensionsUsed" : [
        "KHR_materials_clearcoat"
    ],
    "scene" : 0,
    "scenes" : [
        {
            "name" : "Scene",
            "nodes" : [
                0
            ]
        }
    ],
    "nodes" : [
        {
            "mesh" : 0,
            "name" : "Plane.001",
            "rotation" : [
                0,
                0,
                0.7071067094802856,
                0.7071068286895752
            ],
            "scale" : [
                -58.90309524536133,
                -19.21818733215332,
                -42.4356689453125
            ],
            "translation" : [
                0.3577549159526825,
                0,
                0
            ]
        }
    ],
    "materials" : [
        {
            "doubleSided" : true,
            "extensions" : {
                "KHR_materials_clearcoat" : {
                    "clearcoatFactor" : 0.47727274894714355,
                    "clearcoatRoughnessFactor" : 0.281818151473999,
                    "clearcoatNormalTexture" : {
                        "index" : 0
                    }
                }
            },
            "name" : "Texture.001",
            "normalTexture" : {
                "index" : 1
            },
            "pbrMetallicRoughness" : {
                "baseColorFactor" : [
                    0.11043369770050049,
                    0.09765137732028961,
                    0.07055146992206573,
                    1
                ],
                "metallicFactor" : 0,
                "metallicRoughnessTexture" : {
                    "index" : 2
                }
            }
        },
        {
            "doubleSided" : true,
            "extensions" : {
                "KHR_materials_clearcoat" : {
                    "clearcoatFactor" : 0.47727274894714355,
                    "clearcoatRoughnessFactor" : 0.281818151473999,
                    "clearcoatNormalTexture" : {
                        "index" : 3
                    }
                }
            },
            "name" : "CardBack",
            "normalTexture" : {
                "index" : 4
            },
            "pbrMetallicRoughness" : {
                "baseColorTexture" : {
                    "index" : 5
                },
                "metallicFactor" : 0,
                "metallicRoughnessTexture" : {
                    "index" : 6
                }
            }
        },
        {
            "doubleSided" : true,
            "extensions" : {
                "KHR_materials_clearcoat" : {
                    "clearcoatFactor" : 0.47727274894714355,
                    "clearcoatRoughnessFactor" : 0.281818151473999,
                    "clearcoatNormalTexture" : {
                        "index" : 7
                    }
                }
            },
            "name" : "CardFront",
            "normalTexture" : {
                "index" : 8
            },
            "pbrMetallicRoughness" : {
                "baseColorTexture" : {
                    "index" : 9
                },
                "metallicFactor" : 0,
                "metallicRoughnessTexture" : {
                    "index" : 10
                }
            }
        }
    ],
    "meshes" : [
        {
            "name" : "Plane.001",
            "primitives" : [
                {
                    "attributes" : {
                        "POSITION" : 0,
                        "NORMAL" : 1,
                        "TEXCOORD_0" : 2,
                        "COLOR_0" : 3
                    },
                    "indices" : 4,
                    "material" : 0
                },
                {
                    "attributes" : {
                        "POSITION" : 5,
                        "NORMAL" : 6,
                        "TEXCOORD_0" : 7,
                        "COLOR_0" : 8
                    },
                    "indices" : 9,
                    "material" : 1
                },
                {
                    "attributes" : {
                        "POSITION" : 10,
                        "NORMAL" : 11,
                        "TEXCOORD_0" : 12,
                        "COLOR_0" : 13
                    },
                    "indices" : 14,
                    "material" : 2
                }
            ]
        }
    ],
    "textures" : [
        {
            "sampler" : 0,
            "source" : 0
        },
        {
            "sampler" : 0,
            "source" : 0
        },
        {
            "sampler" : 0,
            "source" : 1
        },
        {
            "sampler" : 0,
            "source" : 0
        },
        {
            "sampler" : 0,
            "source" : 0
        },
        {
            "sampler" : 1,
            "source" : 2
        },
        {
            "sampler" : 0,
            "source" : 1
        },
        {
            "sampler" : 0,
            "source" : 0
        },
        {
            "sampler" : 0,
            "source" : 0
        },
        {
            "sampler" : 1,
            "source" : 3
        },
        {
            "sampler" : 0,
            "source" : 1
        }
    ],
    "images" : [
        {
            "mimeType" : "image/jpeg",
            "name" : "rbesqap_4K_Normal",
            "uri" : "textures/rbesqap_4K_Normal.jpg"
        },
        {
            "mimeType" : "image/png",
            "name" : "rbesqap_4K_Roughness",
            "uri" : "textures/rbesqap_4K_Roughness.png"
        },
        {
            "mimeType" : "image/png",
            "name" : "pokemon_card_backside",
            "uri" : "textures/pokemon_card_backside.png"
        },
        {
            "mimeType" : "image/png",
            "name" : "Pokemon",
            "uri" : "textures/69_hires.png"
        }
    ],
    "accessors" : [
        {
            "bufferView" : 0,
            "componentType" : 5126,
            "count" : 16,
            "max" : [
                0.9188596606254578,
                0.013055779971182346,
                1
            ],
            "min" : [
                -0.9277141690254211,
                0,
                -1
            ],
            "type" : "VEC3"
        },
        {
            "bufferView" : 1,
            "componentType" : 5126,
            "count" : 16,
            "type" : "VEC3"
        },
        {
            "bufferView" : 2,
            "componentType" : 5126,
            "count" : 16,
            "type" : "VEC2"
        },
        {
            "bufferView" : 3,
            "componentType" : 5123,
            "count" : 16,
            "normalized" : true,
            "type" : "VEC4"
        },
        {
            "bufferView" : 4,
            "componentType" : 5123,
            "count" : 24,
            "type" : "SCALAR"
        },
        {
            "bufferView" : 5,
            "componentType" : 5126,
            "count" : 260,
            "max" : [
                1,
                0.013055779971182346,
                1
            ],
            "min" : [
                -1,
                0,
                -1
            ],
            "type" : "VEC3"
        },
        {
            "bufferView" : 6,
            "componentType" : 5126,
            "count" : 260,
            "type" : "VEC3"
        },
        {
            "bufferView" : 7,
            "componentType" : 5126,
            "count" : 260,
            "type" : "VEC2"
        },
        {
            "bufferView" : 8,
            "componentType" : 5123,
            "count" : 260,
            "normalized" : true,
            "type" : "VEC4"
        },
        {
            "bufferView" : 9,
            "componentType" : 5123,
            "count" : 462,
            "type" : "SCALAR"
        },
        {
            "bufferView" : 10,
            "componentType" : 5126,
            "count" : 60,
            "max" : [
                1,
                0,
                1
            ],
            "min" : [
                -1,
                0,
                -1
            ],
            "type" : "VEC3"
        },
        {
            "bufferView" : 11,
            "componentType" : 5126,
            "count" : 60,
            "type" : "VEC3"
        },
        {
            "bufferView" : 12,
            "componentType" : 5126,
            "count" : 60,
            "type" : "VEC2"
        },
        {
            "bufferView" : 13,
            "componentType" : 5123,
            "count" : 60,
            "normalized" : true,
            "type" : "VEC4"
        },
        {
            "bufferView" : 14,
            "componentType" : 5123,
            "count" : 174,
            "type" : "SCALAR"
        }
    ],
    "bufferViews" : [
        {
            "buffer" : 0,
            "byteLength" : 192,
            "byteOffset" : 0
        },
        {
            "buffer" : 0,
            "byteLength" : 192,
            "byteOffset" : 192
        },
        {
            "buffer" : 0,
            "byteLength" : 128,
            "byteOffset" : 384
        },
        {
            "buffer" : 0,
            "byteLength" : 128,
            "byteOffset" : 512
        },
        {
            "buffer" : 0,
            "byteLength" : 48,
            "byteOffset" : 640
        },
        {
            "buffer" : 0,
            "byteLength" : 3120,
            "byteOffset" : 688
        },
        {
            "buffer" : 0,
            "byteLength" : 3120,
            "byteOffset" : 3808
        },
        {
            "buffer" : 0,
            "byteLength" : 2080,
            "byteOffset" : 6928
        },
        {
            "buffer" : 0,
            "byteLength" : 2080,
            "byteOffset" : 9008
        },
        {
            "buffer" : 0,
            "byteLength" : 924,
            "byteOffset" : 11088
        },
        {
            "buffer" : 0,
            "byteLength" : 720,
            "byteOffset" : 12012
        },
        {
            "buffer" : 0,
            "byteLength" : 720,
            "byteOffset" : 12732
        },
        {
            "buffer" : 0,
            "byteLength" : 480,
            "byteOffset" : 13452
        },
        {
            "buffer" : 0,
            "byteLength" : 480,
            "byteOffset" : 13932
        },
        {
            "buffer" : 0,
            "byteLength" : 348,
            "byteOffset" : 14412
        }
    ],
    "samplers" : [
        {
            "magFilter" : 9729,
            "minFilter" : 9987
        },
        {
            "magFilter" : 9729,
            "minFilter" : 9987,
            "wrapS" : 33071,
            "wrapT" : 33071
        }
    ],
    "buffers" : [
        {
            "byteLength" : 14760,
            "uri" : "pokemon_card.bin"
        }
    ]
}
